<svg xmlns="http://www.w3.org/2000/svg" xmlns:svg="http://www.w3.org/2000/svg" xmlns:xlink="http://www.w3.org/1999/xlink" id="svg8" width="210mm" height="297mm" version="1.1" viewBox="0 0 210 297"><defs id="defs2"><marker id="DistanceX" orient="auto" refX="0" refY="0" style="overflow:visible"><path style="stroke:#000;stroke-width:.5" id="path12261" d="M 3,-3 L -3,3 M 0,-5 L 0,5"/></marker><pattern id="Hatch" width="8" height="8" x="0" y="0" patternUnits="userSpaceOnUse"><path id="path12264" stroke="#000" stroke-width=".25" d="M8 4 l-4,4" linecap="square"/><path id="path12266" stroke="#000" stroke-width=".25" d="M6 2 l-4,4" linecap="square"/><path id="path12268" stroke="#000" stroke-width=".25" d="M4 0 l-4,4" linecap="square"/></pattern><clipPath id="clipPath14119" clipPathUnits="userSpaceOnUse"><use id="use14121" x="0" y="0" xlink:href="#g14115"/></clipPath></defs><metadata id="metadata5"/><g id="layer1"><g id="g12975" transform="matrix(0.26458333,0,0,0.26458333,3.4488189,-295.81409)" style="display:inline"><g id="g14117" clip-path="url(#clipPath14119)" style="display:none;opacity:1"><g id="g14115"><path id="path13561" d="m 304.18729,1300.8729 a 5.668944,5.668944 0 1 0 4.21632,-4.2211" style="fill:#c2c200;fill-opacity:0;stroke:#c2c200;stroke-width:.566929;stroke-linecap:round;stroke-linejoin:round;stroke-opacity:1"/><path id="path13563" d="m 307.20745,1295.448 a 5.668944,5.668944 0 1 0 -4.23552,4.2259" style="fill:#c2c200;fill-opacity:0;stroke:#c2c200;stroke-width:.566929;stroke-linecap:round;stroke-linejoin:round;stroke-opacity:1"/><path id="path13565" d="m 304.18729,1300.8729 a 1.0658304,1.0658304 0 0 0 -1.21248,-1.2009" style="fill:#c2c200;fill-opacity:0;stroke:#c2c200;stroke-width:.566929;stroke-linecap:round;stroke-linejoin:round;stroke-opacity:1"/><path id="path13567" d="m 307.20745,1295.448 a 1.0890336,1.0890336 0 0 0 1.19328,1.2038" style="fill:#c2c200;fill-opacity:0;stroke:#c2c200;stroke-width:.566929;stroke-linecap:round;stroke-linejoin:round;stroke-opacity:1"/><path id="path13569" d="m 244.17529,1296.6509 a 5.668944,5.668944 0 1 0 4.22112,4.2163" style="fill:#c2c200;fill-opacity:0;stroke:#c2c200;stroke-width:.566929;stroke-linecap:round;stroke-linejoin:round;stroke-opacity:1"/><path id="path13571" d="m 249.60054,1299.6701 a 5.668944,5.668944 0 1 0 -4.22563,-4.2356" style="fill:#c2c200;fill-opacity:0;stroke:#c2c200;stroke-width:.566929;stroke-linecap:round;stroke-linejoin:round;stroke-opacity:1"/><path id="path13573" d="m 244.17529,1296.6509 a 1.0658304,1.0658304 0 0 0 1.20115,-1.2135" style="fill:#c2c200;fill-opacity:0;stroke:#c2c200;stroke-width:.566929;stroke-linecap:round;stroke-linejoin:round;stroke-opacity:1"/><path id="path13575" d="m 249.60054,1299.6701 a 1.0890336,1.0890336 0 0 0 -1.20365,1.1942" style="fill:#c2c200;fill-opacity:0;stroke:#c2c200;stroke-width:.566929;stroke-linecap:round;stroke-linejoin:round;stroke-opacity:1"/><path id="path13577" d="m 248.36003,1236.6007 a 5.668944,5.668944 0 1 0 -4.21623,4.2211" style="fill:#c2c200;fill-opacity:0;stroke:#c2c200;stroke-width:.566929;stroke-linecap:round;stroke-linejoin:round;stroke-opacity:1"/><path id="path13579" d="m 245.34015,1242.0259 a 5.668944,5.668944 0 1 0 4.23552,-4.2256" style="fill:#c2c200;fill-opacity:0;stroke:#c2c200;stroke-width:.566929;stroke-linecap:round;stroke-linejoin:round;stroke-opacity:1"/><path id="path13581" d="m 248.36012,1236.6007 a 1.0658304,1.0658304 0 0 0 1.21267,1.2011" style="fill:#c2c200;fill-opacity:0;stroke:#c2c200;stroke-width:.566929;stroke-linecap:round;stroke-linejoin:round;stroke-opacity:1"/><path id="path13583" d="m 245.34006,1242.0259 a 1.0890336,1.0890336 0 0 0 -1.19347,-1.2036" style="fill:#c2c200;fill-opacity:0;stroke:#c2c200;stroke-width:.566929;stroke-linecap:round;stroke-linejoin:round;stroke-opacity:1"/><path id="path13585" d="m 308.37193,1240.861 a 5.668944,5.668944 0 1 0 -4.22112,-4.2163" style="fill:#c2c200;fill-opacity:0;stroke:#c2c200;stroke-width:.566929;stroke-linecap:round;stroke-linejoin:round;stroke-opacity:1"/><path id="path13587" d="m 302.94697,1237.8411 a 5.668944,5.668944 0 1 0 4.22592,4.2356" style="fill:#c2c200;fill-opacity:0;stroke:#c2c200;stroke-width:.566929;stroke-linecap:round;stroke-linejoin:round;stroke-opacity:1"/><path id="path13589" d="m 308.37193,1240.861 a 1.0658304,1.0658304 0 0 0 -1.20096,1.2127" style="fill:#c2c200;fill-opacity:0;stroke:#c2c200;stroke-width:.566929;stroke-linecap:round;stroke-linejoin:round;stroke-opacity:1"/><path id="path13591" d="m 302.94697,1237.8411 a 1.0890336,1.0890336 0 0 0 1.20384,-1.1936" style="fill:#c2c200;fill-opacity:0;stroke:#c2c200;stroke-width:.566929;stroke-linecap:round;stroke-linejoin:round;stroke-opacity:1"/><g style="fill:#c2c200;fill-opacity:0;stroke:#c2c200;stroke-width:19.685;stroke-linecap:round;stroke-linejoin:round;stroke-opacity:1" id="g13619" transform="matrix(0.0096,0,0,0.0096,158.99497,1174.1731)"><path id="path13595" d="M 22450,9 H 20088"/><path id="path13597" d="m 20088,19694 h 2362"/><path id="path13599" d="M 24419,1978 V 17726"/><path id="path13601" d="M 24419.3,1978.35 A 1968.5,1968.5 0 0 0 22450.8,9.84291"/><path id="path13603" d="m 22450.8,19694.9 a 1968.5,1968.5 0 0 0 1968.5,-1968.5"/><path id="path13605" d="M 9.84291,17726.4 A 1968.5,1968.5 0 0 0 1978.35,19694.9"/><path id="path13607" d="M 1978.35,9.84291 A 1968.5,1968.5 0 0 0 9.84291,1978.35"/><path id="path13609" d="m 1978,9 h 394"/><path id="path13611" d="m 1978,19694 h 394"/><path id="path13613" d="M 9,1978 V 17726"/><path id="path13615" d="M 20088,19694 H 2372"/><path id="path13617" d="M 2372,9 H 20088"/></g><circle id="circle13621" cx="374.523" cy="1193.165" r="5.669" style="fill:#c2c200;fill-opacity:0;stroke:#c2c200;stroke-width:.566929;stroke-linecap:round;stroke-linejoin:round;stroke-opacity:1"/><circle id="circle13623" cx="374.523" cy="1344.347" r="5.669" style="fill:#c2c200;fill-opacity:0;stroke:#c2c200;stroke-width:.566929;stroke-linecap:round;stroke-linejoin:round;stroke-opacity:1"/><circle id="circle13625" cx="177.987" cy="1344.347" r="5.669" style="fill:#c2c200;fill-opacity:0;stroke:#c2c200;stroke-width:.566929;stroke-linecap:round;stroke-linejoin:round;stroke-opacity:1"/><circle id="circle13627" cx="177.987" cy="1193.165" r="5.669" style="fill:#c2c200;fill-opacity:0;stroke:#c2c200;stroke-width:.566929;stroke-linecap:round;stroke-linejoin:round;stroke-opacity:1"/></g></g><path style="display:none;fill:none;stroke:#000;stroke-width:1px;stroke-linecap:butt;stroke-linejoin:miter;stroke-opacity:1" id="path13998" d="m 177.98376,1174.2595 0.003,188.9846 196.53588,-188.9765 v 188.9765 z"/><path style="display:none;fill:none;stroke:#000;stroke-width:1px;stroke-linecap:butt;stroke-linejoin:miter;stroke-opacity:1" id="path14002" d="m 276.25605,1268.7545 v 94.481"/><path style="display:none;fill:none;stroke:#000;stroke-width:1px;stroke-linecap:butt;stroke-linejoin:miter;stroke-opacity:1" id="path14004" d="M 148.33696,1257.6911 H 402.8954"/><path style="display:none;fill:none;stroke:#000;stroke-width:1px;stroke-linecap:butt;stroke-linejoin:miter;stroke-opacity:1" id="path14006" d="m 276.25604,1268.7545 v -94.495"/><path id="path14022" d="m 276.25602,1251.5039 -48.87462,-35.7341 1.9161,13.7782 24.71962,28.0402 m -15.14529,4.1435 37.41869,20.4783 -16.33602,53.0003 16.3015,-22.5922 m -42.92696,-2.5877 -4.81126,-23.55 6.56598,-18.5615 m 41.17224,82.7079 -98.27096,-92.9357 14.04098,-6.1872 43.05775,16.415 3.78807,-6.1872 37.38415,-10.2278 0.0345,30.7061 m -25.07095,21.1394 -7.42588,8.7854 -9.90669,-10.3168 7.37272,-8.3519 z m 1.3125,-1.3125 6.77495,-8.2476 -9.64776,-9.4114 -7.21204,7.6507 z m 23.72161,-50.533 49.11723,-35.3999 -2.01004,13.7648 -24.91031,27.8709 m 15.11667,4.2468 -37.5575,20.2225 15.97412,53.1105 -16.14702,-22.7028 m 42.94362,-2.2949 4.97178,-23.5166 -6.43922,-18.6059 m -41.73544,82.4252 98.9026,-92.2632 -13.99845,-6.2829 -43.16872,16.1209 -3.74578,-6.2128 -37.31351,-10.4826 -0.24395,30.7051 m 24.92617,21.31 7.36579,8.8358 9.97683,-10.249 -7.31558,-8.402 z m -1.30351,-1.3215 -6.71854,-8.2936 9.71173,-9.3454 7.15969,7.6998 z" style="fill:none;stroke:#000;stroke-width:1px;stroke-linecap:butt;stroke-linejoin:miter;stroke-opacity:1"/></g><path id="path14127" d="m 76.541571,45.038224 -1.300687,3.933317 h 1.300687 m -2.115698,-4.866444 -1.594586,1.771763 1.407966,2.846634 1.011086,-3.276582 z m 2.125425,0.933138 1.291883,3.936217 -1.300684,-0.0029 m 2.126581,-4.861698 1.590618,1.775326 -1.414332,2.843477 -1.003752,-3.278836 z" style="display:inline;fill:none;stroke:#000;stroke-width:.264583px;stroke-linecap:butt;stroke-linejoin:miter;stroke-opacity:1"/><path style="display:inline;fill:none;stroke:#000;stroke-width:.264583px;stroke-linecap:butt;stroke-linejoin:miter;stroke-opacity:1" id="path14132" d="m 76.452094,61.454646 0.03374,-9.894652"/></g></svg>